<?xml version="1.0" encoding="utf-8"?>
<!-- Generator: Adobe Illustrator 25.4.1, SVG Export Plug-In . SVG Version: 6.00 Build 0)  -->
<svg version="1.1" id="Layer_1" xmlns="http://www.w3.org/2000/svg" xmlns:xlink="http://www.w3.org/1999/xlink" x="0px" y="0px"
	 width="185px" height="65.4px" viewBox="0 0 185 65.4" style="enable-background:new 0 0 185 65.4;" xml:space="preserve">
<g>
	<g>
		<path d="M60.9,0.8c-1.3,0.1-2.4,0.3-3.2,0.5c-0.8,0.3-1.6,0.8-2.2,1.5c-0.5,0.5-0.9,1-1.2,1.6c-0.3,0.6-0.4,1.4-0.5,2.3
			c-0.2,1.2-0.2,2.7-0.2,4.3v26c0,2.4,0.1,4.2,0.4,5.4c0.3,1.2,0.8,2.1,1.5,2.8c1.3,1.2,3.1,1.9,5.5,2v0.8H38.4v-0.8
			c1.4-0.1,2.5-0.3,3.3-0.6c0.8-0.3,1.6-0.8,2.2-1.5c0.7-0.8,1.2-1.7,1.5-2.9c0.3-1.2,0.4-2.9,0.4-5.3V5.5L27.7,48.2h-0.7L8.9,6.2
			v30.9c0,2.4,0.1,4.2,0.4,5.4c0.3,1.2,0.8,2.1,1.5,2.9c0.7,0.7,1.4,1.2,2.2,1.5c0.8,0.3,1.9,0.5,3.3,0.6v0.8H0v-0.8
			c1.3-0.1,2.4-0.3,3.3-0.6c0.8-0.3,1.6-0.8,2.2-1.5c0.7-0.8,1.2-1.7,1.5-2.9c0.3-1.2,0.4-2.9,0.4-5.3v-26C7.4,10,7.4,9,7.3,8
			C7.2,6.3,6.9,5,6.5,4.2C5.9,3.1,5.1,2.3,4.1,1.7C3.1,1.2,1.7,0.9,0,0.8V0h15.3l15.3,37.7L46.4,0h14.5V0.8z"/>
		<path d="M88.1,0v0.8c-1.3,0.1-2.4,0.3-3.3,0.6c-0.8,0.3-1.6,0.8-2.2,1.5c-0.9,0.9-1.5,2.2-1.7,3.9c-0.1,1.2-0.2,2.7-0.2,4.3v26
			c0,2,0.1,3.5,0.3,4.6c0.2,1.1,0.5,2,0.9,2.7c0.6,0.9,1.4,1.6,2.4,2.1c1,0.5,2.2,0.7,3.8,0.8v0.8H65.6v-0.8
			c1.4-0.1,2.5-0.3,3.3-0.6c0.8-0.3,1.6-0.8,2.2-1.5c0.8-0.8,1.3-1.7,1.5-2.9c0.3-1.2,0.4-2.9,0.4-5.4v-26c0-2.4-0.1-4.2-0.4-5.4
			c-0.3-1.2-0.8-2.1-1.5-2.9c-0.6-0.7-1.4-1.2-2.2-1.5c-0.8-0.3-1.9-0.5-3.3-0.6V0H88.1z"/>
		<path d="M113.6,1.1c-1.5,0-3.1,0-4.8,0.1c-3.6,0.2-6.3,0.6-8.1,1.4c-1.8,0.7-3.2,2-4.4,3.8c-1.1,1.6-1.9,3.9-2.4,6.7L93.1,13
			l0.6-13h47.7l0.6,13l-0.8,0.1c-0.6-3.3-1.6-5.7-3-7.4C137,4,135,2.8,132.4,2c-2.2-0.6-5.9-1-11.1-1v36c0,2.4,0.1,4.2,0.4,5.3
			c0.3,1.2,0.8,2.1,1.5,2.9c0.7,0.7,1.4,1.2,2.2,1.5c0.8,0.3,1.9,0.5,3.3,0.6v0.8h-22.5v-0.8c1.4-0.1,2.5-0.3,3.3-0.6
			c0.8-0.3,1.6-0.8,2.2-1.5c0.7-0.8,1.2-1.7,1.5-2.9c0.3-1.2,0.4-2.9,0.4-5.4V1.1z"/>
		<path d="M185,48.2h-23.2v-0.8c2.1-0.2,3.6-0.5,4.4-1.1c1.5-0.9,2.2-2.2,2.2-3.8c0-1-0.3-2.3-1-3.9l-0.6-1.5l-3.4-8.3h-15.5
			l-1.8,4.9l-0.9,2.2c-1.1,2.6-1.6,4.6-1.6,6.1c0,0.9,0.2,1.7,0.6,2.4c0.4,0.8,0.9,1.4,1.6,1.8c0.9,0.6,2.1,1,3.5,1.1v0.8h-15.8
			v-0.8c1.2-0.1,2.3-0.4,3.3-0.9c0.9-0.5,1.9-1.4,2.8-2.6c0.8-1,1.5-2.2,2.2-3.7c0.7-1.5,1.7-3.8,2.8-6.8L157.4,0h2l15.3,37.1
			c1.2,2.8,2.1,4.8,2.8,6c0.7,1.2,1.4,2.1,2.2,2.7c0.6,0.4,1.2,0.7,1.9,1c0.7,0.2,1.8,0.4,3.3,0.6V48.2z M162.8,27.3l-7.4-18.3
			l-7,18.3H162.8z"/>
	</g>
	<g>
		<path d="M20.2,58.5h4.1v0.5h-3.6v2.7h3.1v0.5h-3.1v2.8h3.6v0.5h-4.1V58.5z"/>
		<path d="M31.9,65.4c-1,0-1.6-0.3-2.3-0.9l0.4-0.4c0.6,0.6,1.1,0.8,1.9,0.8c1.1,0,1.8-0.5,1.8-1.4c0-0.4-0.1-0.7-0.4-1
			c-0.3-0.2-0.4-0.3-1-0.4L31.5,62c-0.5-0.1-0.9-0.2-1.2-0.5c-0.4-0.3-0.5-0.7-0.5-1.3c0-1.2,0.8-1.9,2.1-1.9c0.8,0,1.4,0.2,2,0.7
			l-0.3,0.3c-0.4-0.4-0.9-0.6-1.7-0.6c-1,0-1.6,0.5-1.6,1.4c0,0.4,0.1,0.7,0.4,0.9c0.2,0.2,0.6,0.4,1,0.4l0.7,0.1
			c0.6,0.1,0.9,0.2,1.2,0.5c0.4,0.3,0.6,0.8,0.6,1.3C34.2,64.6,33.3,65.4,31.9,65.4z"/>
		<path d="M41.8,65.3h-0.5v-6.4h-2v-0.5h4.6v0.5h-2V65.3z"/>
		<path d="M52.2,63.6h-3.2l-0.6,1.7h-0.6l2.5-6.8h0.5l2.5,6.8h-0.6L52.2,63.6z M49.2,63.2h2.9l-1.4-4L49.2,63.2z"/>
		<path d="M61.4,65.3h-2.6v-6.8h2.5c1.1,0,2,0.7,2,1.8c0,0.7-0.4,1.3-1.1,1.5c0.7,0.3,1.2,0.9,1.2,1.6
			C63.4,64.7,62.6,65.3,61.4,65.3z M61.3,58.9h-1.9v2.6h1.9c0.8,0,1.5-0.4,1.5-1.3C62.8,59.3,62.1,58.9,61.3,58.9z M61.3,62h-2v2.8
			h2c0.9,0,1.5-0.5,1.5-1.4C62.9,62.6,62.3,62,61.3,62z"/>
		<path d="M69.4,58.5H70v6.4h3.6v0.5h-4.1V58.5z"/>
		<path d="M79.1,58.5h0.5v6.8h-0.5V58.5z"/>
		<path d="M87.7,65.4c-1,0-1.6-0.3-2.3-0.9l0.4-0.4c0.6,0.6,1.1,0.8,1.9,0.8c1.1,0,1.8-0.5,1.8-1.4c0-0.4-0.1-0.7-0.4-1
			c-0.3-0.2-0.4-0.3-1-0.4L87.3,62c-0.5-0.1-0.9-0.2-1.2-0.5c-0.4-0.3-0.5-0.7-0.5-1.3c0-1.2,0.8-1.9,2.1-1.9c0.8,0,1.4,0.2,2,0.7
			l-0.3,0.3c-0.4-0.4-0.9-0.6-1.7-0.6c-1,0-1.6,0.5-1.6,1.4c0,0.4,0.1,0.7,0.4,0.9c0.2,0.2,0.6,0.4,1,0.4l0.7,0.1
			c0.6,0.1,0.9,0.2,1.2,0.5c0.4,0.3,0.6,0.8,0.6,1.3C90,64.6,89.1,65.4,87.7,65.4z"/>
		<path d="M99.9,62.1h-3.6v3.2h-0.5v-6.8h0.5v3.2h3.6v-3.2h0.5v6.8h-0.5V62.1z"/>
		<path d="M106.7,58.5h4.1v0.5h-3.6v2.7h3.1v0.5h-3.1v2.8h3.6v0.5h-4.1V58.5z"/>
		<path d="M120.6,64.7c-0.4,0.4-1,0.6-1.7,0.6h-2.3v-6.8h2.3c0.7,0,1.3,0.2,1.7,0.6c0.7,0.7,0.7,1.8,0.7,2.7S121.3,64,120.6,64.7z
			 M120.3,59.5c-0.4-0.4-0.9-0.5-1.5-0.5h-1.6v5.9h1.6c0.5,0,1.1-0.1,1.5-0.5c0.5-0.6,0.5-1.8,0.5-2.5C120.8,61,120.8,60,120.3,59.5
			z"/>
		<path d="M135.5,59l-1.2,1.1v-0.6l1.2-1.1h0.5v6.8h-0.5V59z"/>
		<path d="M145.9,61.8l-1.8,3.5h-0.5l1.6-3.2c-0.2,0.1-0.5,0.2-0.8,0.2c-1.1,0-1.8-0.8-1.8-1.9c0-1.1,0.7-2,1.8-2
			c1.2,0,1.8,0.8,1.8,1.9C146.3,60.8,146.2,61.2,145.9,61.8z M144.5,58.8c-0.8,0-1.3,0.6-1.3,1.5c0,0.8,0.4,1.5,1.3,1.5
			c0.8,0,1.3-0.6,1.3-1.5S145.3,58.8,144.5,58.8z"/>
		<path d="M153.7,65.4c-1.1,0-1.9-0.8-1.9-1.9c0-0.8,0.4-1.4,1.1-1.7c-0.6-0.3-0.9-0.9-0.9-1.6c0-1,0.7-1.8,1.8-1.8
			c1.1,0,1.8,0.8,1.8,1.8c0,0.7-0.3,1.2-0.9,1.6c0.7,0.3,1.1,0.9,1.1,1.7C155.6,64.6,154.8,65.4,153.7,65.4z M153.7,62
			c-0.8,0-1.5,0.6-1.5,1.5c0,0.8,0.6,1.5,1.5,1.5c0.8,0,1.5-0.6,1.5-1.5C155.1,62.6,154.5,62,153.7,62z M153.7,58.8
			c-0.8,0-1.3,0.6-1.3,1.4c0,0.8,0.5,1.4,1.3,1.4s1.3-0.6,1.3-1.4C155,59.4,154.5,58.8,153.7,58.8z"/>
		<path d="M161.8,65.3l2.4-6.4h-2.6V60h-0.5v-1.5h3.6v0.4l-2.4,6.4H161.8z"/>
	</g>
</g>
</svg>
