
        <svg xmlns="http://www.w3.org/2000/svg" xmlns:xlink="http://www.w3.org/1999/xlink" version="1.1" width="3206.896551724138" 
        height="3175.8620689655177" viewBox="0 0 3206.896551724138 3175.8620689655177">
			<rect fill="#BF1922" width="3206.896551724138" height="3175.8620689655177"/>
			<g transform="scale(10.344827586206897) translate(10, 10)">
				<defs id="SvgjsDefs23915"><linearGradient id="SvgjsLinearGradient23924"><stop id="SvgjsStop23925" stop-color="#2d388a" offset="0"></stop><stop id="SvgjsStop23926" stop-color="#00aeef" offset="1"></stop></linearGradient><linearGradient id="SvgjsLinearGradient23927"><stop id="SvgjsStop23928" stop-color="#7d141d" offset="0"></stop><stop id="SvgjsStop23929" stop-color="#ff1e27" offset="1"></stop></linearGradient></defs><g id="SvgjsG23916" featureKey="rootContainer" transform="matrix(1,0,0,1,0,0)" fill="#ffffff"><rect xmlns="http://www.w3.org/2000/svg" width="290" height="287" rx="10" ry="10"></rect></g><g id="SvgjsG23917" featureKey="symbolFeature-0" transform="matrix(1.477773643787787,0,0,1.477773643787787,71.61116349064338,9.592832639399457)" fill="url(#SvgjsLinearGradient23924)"><g xmlns="http://www.w3.org/2000/svg"><path d="M94.891,53.252l-0.014-0.014l-7.766-8.279l-7.566-7.976l0.157-10.096l0.144-10.427v-0.005   c0.006-0.625-0.496-1.137-1.121-1.142h-0.025l-12.36-0.111c-0.688-0.006-1.253,0.547-1.259,1.236v0.023l-0.045,4.989l-5.623-5.828   c-2.618-2.729-5.27-5.427-7.911-8.132c-0.005-0.005-0.017-0.015-0.021-0.02c-0.584-0.576-1.524-0.569-2.102,0.015l-0.006,0.006   l-11.062,11.22L27.315,29.992L5.377,52.615l-0.013,0.014C5.137,52.863,4.998,53.184,5,53.537c0.004,0.716,0.589,1.294,1.305,1.289   l9.367-0.059l0.194,37.156v0.012c0.003,0.567,0.466,1.026,1.035,1.023l27.373-0.134h0.009c0.495-0.002,0.895-0.406,0.892-0.901   l-0.108-22.158l10.837-0.057l0.145,22.215v0.008c0.002,0.315,0.26,0.57,0.576,0.568l27.363-0.178h0.006   c0.218-0.002,0.395-0.18,0.393-0.398l-0.25-38.249l10.447,0.261c0.104,0.002,0.207-0.033,0.288-0.109   C95.035,53.673,95.044,53.416,94.891,53.252z M83.989,53.378c-0.08,0.002-0.147,0.067-0.147,0.147l-0.248,37.998l-26.39-0.172   L57.35,68.98l0,0c0.002-0.398-0.317-0.725-0.717-0.727h-0.008l-12.35-0.063l0,0c-0.433-0.002-0.787,0.349-0.789,0.781v0.008   L43.378,91.02l-25.436-0.123l0.195-37.371c0.004-0.678-0.542-1.229-1.221-1.233h-0.014L9.41,52.245l20.019-20.179l11.069-11.213   l9.95-10.196c2.3,2.331,4.596,4.666,6.918,6.975l8.022,8.022l0.021,0.02c0.243,0.241,0.577,0.389,0.948,0.386   c0.731-0.007,1.322-0.606,1.314-1.34l-0.063-7.012l9.959-0.089l0.127,9.269l0.162,10.427v0.029c0.004,0.204,0.084,0.406,0.24,0.563   l8.073,7.977l7.433,7.262L83.989,53.378z"></path></g></g><g id="SvgjsG23918" featureKey="nameFeature-0" transform="matrix(1.3634380408367335,0,0,1.3634380408367335,16.236910045086493,151.40227068522498)" fill="url(#SvgjsLinearGradient23927)"><path d="M15.68 11.440000000000001 c3.04 0 5.44 0.82668 7.2 2.48 s2.64 3.88 2.64 6.68 c0 2.8267 -0.88 5.06 -2.64 6.7 s-4.1468 2.46 -7.16 2.46 l-6.68 0 l0 10.24 l-6.28 0 l0 -28.56 l12.92 0 z M14.04 24.880000000000003 c1.8133 0 3.1667 -0.33332 4.06 -1 s1.34 -1.76 1.34 -3.28 c0 -1.4667 -0.43332 -2.5467 -1.3 -3.24 s-2.22 -1.04 -4.06 -1.04 l-5.04 0 l0 8.56 l5 0 z M47.967999999999996 11.440000000000001 l10.68 28.56 l-6.52 0 l-2.16 -6.36 l-10.68 0 l-2.24 6.36 l-6.36 0 l10.84 -28.56 l6.44 0 z M44.647999999999996 18.48 l-3.72 10.48 l7.4 0 l-3.6 -10.48 l-0.08 0 z M80.616 11.440000000000001 c4.0532 0 7.24 1.2533 9.56 3.76 s3.48 5.96 3.48 10.36 c0 4.56 -1.1667 8.1068 -3.5 10.64 s-5.46 3.8 -9.38 3.8 l-12.4 0 l0 -28.56 l12.24 0 z M80.216 34.72 c2.2667 0 4.0268 -0.74668 5.28 -2.24 s1.88 -3.6133 1.88 -6.36 c0 -3.1467 -0.67332 -5.5 -2.02 -7.06 s-3.42 -2.34 -6.22 -2.34 l-4.48 0 l0 18 l5.56 0 z M111.54400000000001 11.440000000000001 l0 28.56 l-6.28 0 l0 -28.56 l6.28 0 z M130.55200000000002 11.440000000000001 l11.92 19.16 l0.08 0 l0 -19.16 l5.88 0 l0 28.56 l-6.28 0 l-11.88 -19.12 l-0.08 0 l0 19.12 l-5.88 0 l0 -28.56 l6.24 0 z M175.44 11.440000000000001 l10.68 28.56 l-6.52 0 l-2.16 -6.36 l-10.68 0 l-2.24 6.36 l-6.36 0 l10.84 -28.56 l6.44 0 z M172.12 18.48 l-3.72 10.48 l7.4 0 l-3.6 -10.48 l-0.08 0 z"></path></g><g id="SvgjsG23919" featureKey="sloganFeature-0" transform="matrix(2.7407857471089923,0,0,2.7407857471089923,17.21771470187731,211.2545723668956)" fill="#000000"><path d="M4.52 5.720000000000001 l0 5.92 l5.58 -5.92 l3.92 0 l-5.58 5.64 l6.12 8.64 l-3.94 0 l-4.3 -6.42 l-1.8 1.82 l0 4.6 l-3.14 0 l0 -14.28 l3.14 0 z M22.673 5.380000000000001 c2.1066 0 3.8034 0.7 5.09 2.1 s1.93 3.2134 1.93 5.44 c0 2.1734 -0.64666 3.9534 -1.94 5.34 s-2.9866 2.08 -5.08 2.08 c-2.1066 0 -3.8034 -0.69334 -5.09 -2.08 s-1.93 -3.1666 -1.93 -5.34 c0 -2.2134 0.64666 -4.0234 1.94 -5.43 s2.9866 -2.11 5.08 -2.11 z M18.793 12.92 c0 1.44 0.33998 2.5966 1.02 3.47 s1.6333 1.31 2.86 1.31 c1.2 0 2.1466 -0.43 2.84 -1.29 s1.04 -2.0234 1.04 -3.49 c0 -1.5333 -0.34334 -2.7334 -1.03 -3.6 s-1.6433 -1.3 -2.87 -1.3 c-1.2 0 -2.1434 0.43334 -2.83 1.3 s-1.03 2.0666 -1.03 3.6 z M36.705999999999996 5.720000000000001 l3.34 9.82 l0.04 0 l3.16 -9.82 l4.42 0 l0 14.28 l-2.94 0 l0 -10.12 l-0.04 0 l-3.5 10.12 l-2.42 0 l-3.5 -10.02 l-0.04 0 l0 10.02 l-2.94 0 l0 -14.28 l4.42 0 z M61.559 5.720000000000001 l0 2.64 l-7.54 0 l0 3.06 l6.92 0 l0 2.44 l-6.92 0 l0 3.5 l7.7 0 l0 2.64 l-10.84 0 l0 -14.28 l10.68 0 z M71.99199999999999 5.720000000000001 c1.2 0 2.1968 0.37 2.99 1.11 s1.19 1.6833 1.19 2.83 c0 1.7867 -0.75334 2.98 -2.26 3.58 l0 0.04 c0.50666 0.14666 0.90332 0.39 1.19 0.73 s0.50332 0.73666 0.64998 1.19 s0.24 1.18 0.28 2.18 c0.05334 1.3067 0.24 2.18 0.56 2.62 l-3.14 0 c-0.17334 -0.44 -0.30668 -1.2667 -0.40002 -2.48 c-0.10666 -1.28 -0.34 -2.1166 -0.7 -2.51 s-0.94666 -0.59 -1.76 -0.59 l-3.16 0 l0 5.58 l-3.14 0 l0 -14.28 l7.7 0 z M70.892 12.18 c0.66666 0 1.19 -0.15 1.57 -0.45 s0.57 -0.83 0.57 -1.59 c0 -0.72 -0.18666 -1.23 -0.56 -1.53 s-0.90668 -0.45 -1.6 -0.45 l-3.44 0 l0 4.02 l3.46 0 z M85.585 5.380000000000001 c1.6667 0 3.0666 0.47 4.2 1.41 s1.7867 2.1834 1.96 3.73 l-3.04 0 c-0.10666 -0.70666 -0.46 -1.3 -1.06 -1.78 s-1.2867 -0.72 -2.06 -0.72 c-1.2267 0 -2.18 0.44 -2.86 1.32 s-1.02 2.0734 -1.02 3.58 c0 1.4667 0.34334 2.63 1.03 3.49 s1.6367 1.29 2.85 1.29 c0.90666 0 1.64 -0.27666 2.2 -0.83 s0.90666 -1.3433 1.04 -2.37 l3.04 0 c-0.16 1.8133 -0.81 3.24 -1.95 4.28 s-2.5834 1.56 -4.33 1.56 c-2.0934 0 -3.7866 -0.69 -5.08 -2.07 s-1.94 -3.1634 -1.94 -5.35 c0 -2.2134 0.64 -4.0234 1.92 -5.43 s2.98 -2.11 5.1 -2.11 z"></path></g>
			</g>
		</svg>
	